<svg id="SvgjsSvg1006" width="1424" height="1675" xmlns="http://www.w3.org/2000/svg" version="1.1" xmlns:xlink="http://www.w3.org/1999/xlink" xmlns:svgjs="http://svgjs.com/svgjs"><defs id="SvgjsDefs1007"><marker id="SvgjsMarker1042" markerWidth="16" markerHeight="12" refX="16" refY="6" viewBox="0 0 16 12" orient="auto" markerUnits="userSpaceOnUse"><path id="SvgjsPath1043" d="M0,2 L14,6 L0,11 L0,2" fill="#323232" stroke="#323232" stroke-width="2"></path></marker><marker id="SvgjsMarker1052" markerWidth="16" markerHeight="12" refX="16" refY="6" viewBox="0 0 16 12" orient="auto" markerUnits="userSpaceOnUse"><path id="SvgjsPath1053" d="M0,2 L14,6 L0,11 L0,2" fill="#323232" stroke="#323232" stroke-width="2"></path></marker><marker id="SvgjsMarker1060" markerWidth="16" markerHeight="12" refX="16" refY="6" viewBox="0 0 16 12" orient="auto" markerUnits="userSpaceOnUse"><path id="SvgjsPath1061" d="M0,2 L14,6 L0,11 L0,2" fill="#323232" stroke="#323232" stroke-width="2"></path></marker><marker id="SvgjsMarker1086" markerWidth="16" markerHeight="12" refX="16" refY="6" viewBox="0 0 16 12" orient="auto" markerUnits="userSpaceOnUse"><path id="SvgjsPath1087" d="M0,2 L14,6 L0,11 L0,2" fill="#323232" stroke="#323232" stroke-width="2"></path></marker><marker id="SvgjsMarker1106" markerWidth="16" markerHeight="12" refX="16" refY="6" viewBox="0 0 16 12" orient="auto" markerUnits="userSpaceOnUse"><path id="SvgjsPath1107" d="M0,2 L14,6 L0,11 L0,2" fill="#323232" stroke="#323232" stroke-width="2"></path></marker><marker id="SvgjsMarker1114" markerWidth="16" markerHeight="12" refX="16" refY="6" viewBox="0 0 16 12" orient="auto" markerUnits="userSpaceOnUse"><path id="SvgjsPath1115" d="M0,2 L14,6 L0,11 L0,2" fill="#323232" stroke="#323232" stroke-width="2"></path></marker><marker id="SvgjsMarker1122" markerWidth="16" markerHeight="12" refX="16" refY="6" viewBox="0 0 16 12" orient="auto" markerUnits="userSpaceOnUse"><path id="SvgjsPath1123" d="M0,2 L14,6 L0,11 L0,2" fill="#323232" stroke="#323232" stroke-width="2"></path></marker><marker id="SvgjsMarker1144" markerWidth="16" markerHeight="12" refX="16" refY="6" viewBox="0 0 16 12" orient="auto" markerUnits="userSpaceOnUse"><path id="SvgjsPath1145" d="M0,2 L14,6 L0,11 L0,2" fill="#323232" stroke="#323232" stroke-width="2"></path></marker><marker id="SvgjsMarker1164" markerWidth="16" markerHeight="12" refX="16" refY="6" viewBox="0 0 16 12" orient="auto" markerUnits="userSpaceOnUse"><path id="SvgjsPath1165" d="M0,2 L14,6 L0,11 L0,2" fill="#323232" stroke="#323232" stroke-width="2"></path></marker><marker id="SvgjsMarker1174" markerWidth="16" markerHeight="12" refX="16" refY="6" viewBox="0 0 16 12" orient="auto" markerUnits="userSpaceOnUse"><path id="SvgjsPath1175" d="M0,2 L14,6 L0,11 L0,2" fill="#323232" stroke="#323232" stroke-width="2"></path></marker><marker id="SvgjsMarker1184" markerWidth="16" markerHeight="12" refX="16" refY="6" viewBox="0 0 16 12" orient="auto" markerUnits="userSpaceOnUse"><path id="SvgjsPath1185" d="M0,2 L14,6 L0,11 L0,2" fill="#323232" stroke="#323232" stroke-width="2"></path></marker><marker id="SvgjsMarker1248" markerWidth="16" markerHeight="12" refX="16" refY="6" viewBox="0 0 16 12" orient="auto" markerUnits="userSpaceOnUse"><path id="SvgjsPath1249" d="M0,2 L14,6 L0,11 L0,2" fill="#323232" stroke="#323232" stroke-width="2"></path></marker></defs><g id="SvgjsG1008" transform="translate(25,55)"><path id="SvgjsPath1009" d="M 0 4Q 0 0 4 0L 664 0Q 668 0 668 4L 668 1524Q 668 1528 664 1528L 4 1528Q 0 1528 0 1524Z" stroke="rgba(50,50,50,1)" stroke-width="2" fill-opacity="1" fill="#ccffcc"></path><g id="SvgjsG1010"><text id="SvgjsText1011" font-family="微软雅黑" text-anchor="middle" font-size="24px" width="120" fill="#323232" font-weight="700" align="middle" anchor="middle" family="微软雅黑" size="24px" weight="700" font-style="" opacity="1" y="91.54285714285714" transform="rotate(0)"><tspan id="SvgjsTspan1012" dy="30" x="334"><tspan id="SvgjsTspan1013" style="text-decoration:;">数字化模型</tspan></tspan></text></g></g><g id="SvgjsG1014" transform="translate(61.5,292)"><path id="SvgjsPath1015" d="M 0 4Q 0 0 4 0L 288 0Q 292 0 292 4L 292 201Q 292 205 288 205L 4 205Q 0 205 0 201Z" stroke="rgba(50,50,50,1)" stroke-width="2" fill-opacity="1" fill="#ffffff"></path><g id="SvgjsG1016"><text id="SvgjsText1017" font-family="微软雅黑" text-anchor="middle" font-size="13px" width="52" fill="#323232" font-weight="400" align="middle" anchor="middle" family="微软雅黑" size="13px" weight="400" font-style="" opacity="1" y="5.692857142857142" transform="rotate(0)"><tspan id="SvgjsTspan1018" dy="16" x="146"><tspan id="SvgjsTspan1019" style="text-decoration:;">游戏分析</tspan></tspan></text></g></g><g id="SvgjsG1020" transform="translate(787,190)"><path id="SvgjsPath1021" d="M 0 4Q 0 0 4 0L 608 0Q 612 0 612 4L 612 1456Q 612 1460 608 1460L 4 1460Q 0 1460 0 1456Z" stroke="rgba(50,50,50,1)" stroke-width="2" fill-opacity="1" fill="#cce5ff"></path><g id="SvgjsG1022"><text id="SvgjsText1023" font-family="微软雅黑" text-anchor="middle" font-size="24px" width="96" fill="#323232" font-weight="400" align="middle" anchor="middle" family="微软雅黑" size="24px" weight="400" font-style="" opacity="1" y="86.68571428571428" transform="rotate(0)"><tspan id="SvgjsTspan1024" dy="30" x="306"><tspan id="SvgjsTspan1025" style="text-decoration:;">纸面模型</tspan></tspan></text></g></g><g id="SvgjsG1026" transform="translate(155,741)"><path id="SvgjsPath1027" d="M 0 4Q 0 0 4 0L 96 0Q 100 0 100 4L 100 66Q 100 70 96 70L 4 70Q 0 70 0 66Z" stroke="rgba(50,50,50,1)" stroke-width="2" fill-opacity="1" fill="#ffffff"></path><g id="SvgjsG1028"><text id="SvgjsText1029" font-family="微软雅黑" text-anchor="middle" font-size="13px" width="78" fill="#323232" font-weight="400" align="middle" anchor="middle" family="微软雅黑" size="13px" weight="400" font-style="" opacity="1" y="17.05" transform="rotate(0)"><tspan id="SvgjsTspan1030" dy="16" x="50"><tspan id="SvgjsTspan1031" style="text-decoration:;">开始工作：绘</tspan></tspan><tspan id="SvgjsTspan1032" dy="16" x="50"><tspan id="SvgjsTspan1033" style="text-decoration:;">图资源</tspan></tspan></text></g></g><g id="SvgjsG1034" transform="translate(168.25,515)"><path id="SvgjsPath1035" d="M 0 4Q 0 0 4 0L 96 0Q 100 0 100 4L 100 66Q 100 70 96 70L 4 70Q 0 70 0 66Z" stroke="rgba(50,50,50,1)" stroke-width="2" fill-opacity="1" fill="#ffffff"></path><g id="SvgjsG1036"><text id="SvgjsText1037" font-family="微软雅黑" text-anchor="middle" font-size="13px" width="52" fill="#323232" font-weight="400" align="middle" anchor="middle" family="微软雅黑" size="13px" weight="400" font-style="" opacity="1" y="25.05" transform="rotate(0)"><tspan id="SvgjsTspan1038" dy="16" x="50"><tspan id="SvgjsTspan1039" style="text-decoration:;">创建项目</tspan></tspan></text></g></g><g id="SvgjsG1040"><path id="SvgjsPath1041" d="M218.25 585L218.25 607L213 607L213 629" stroke="#323232" stroke-width="2" fill="none" marker-end="url(#SvgjsMarker1042)"></path></g><g id="SvgjsG1044" transform="translate(163,629)"><path id="SvgjsPath1045" d="M 0 4Q 0 0 4 0L 96 0Q 100 0 100 4L 100 66Q 100 70 96 70L 4 70Q 0 70 0 66Z" stroke="rgba(50,50,50,1)" stroke-width="2" fill-opacity="1" fill="#ffffff"></path><g id="SvgjsG1046"><text id="SvgjsText1047" font-family="微软雅黑" text-anchor="middle" font-size="13px" width="52" fill="#323232" font-weight="400" align="middle" anchor="middle" family="微软雅黑" size="13px" weight="400" font-style="" opacity="1" y="25.05" transform="rotate(0)"><tspan id="SvgjsTspan1048" dy="16" x="50"><tspan id="SvgjsTspan1049" style="text-decoration:;">创建场景</tspan></tspan></text></g></g><g id="SvgjsG1050"><path id="SvgjsPath1051" d="M213 699L213 720L205 720L205 741" stroke="#323232" stroke-width="2" fill="none" marker-end="url(#SvgjsMarker1052)"></path></g><g id="SvgjsG1054" transform="translate(187.5,147)"><path id="SvgjsPath1055" d="M 0 20C 0 -6.666666666666667 40 -6.666666666666667 40 20C 40 46.666666666666664 0 46.666666666666664 0 20Z" stroke="none" fill-opacity="1" fill="#323232"></path><g id="SvgjsG1056"><text id="SvgjsText1057" font-family="微软雅黑" text-anchor="middle" font-size="13px" width="0" fill="#323232" font-weight="400" align="middle" anchor="middle" family="微软雅黑" size="13px" weight="400" font-style="" opacity="1" y="45.05" transform="rotate(0)"></text></g></g><g id="SvgjsG1058"><path id="SvgjsPath1059" d="M207.5 187L207.5 255.5L207.5 255.5L207.5 324" stroke="#323232" stroke-width="2" fill="none" marker-end="url(#SvgjsMarker1060)"></path></g><g id="SvgjsG1062" transform="translate(258,629)"><path id="SvgjsPath1063" d="M 0 0L 139 0L 155 16L 155 62L 0 62L 0 0Z" stroke="none" fill-opacity="1" fill="#ffffaa"></path><path id="SvgjsPath1064" d="M 139 0L 139 16L 155 16Z" stroke="none" fill-opacity="1" fill="#cdcdcd"></path><path id="SvgjsPath1065" d="M 0 0L 139 0L 155 16L 155 62L 0 62L 0 0Z" stroke="none" fill="none"></path><g id="SvgjsG1066"><text id="SvgjsText1067" font-family="微软雅黑" text-anchor="middle" font-size="13px" width="130" fill="#323232" font-weight="400" align="middle" anchor="middle" family="微软雅黑" size="13px" weight="400" font-style="" opacity="1" y="13.05" transform="rotate(0)"><tspan id="SvgjsTspan1068" dy="16" x="77.5"><tspan id="SvgjsTspan1069" style="text-decoration:;">一个场景可以是一个关</tspan></tspan><tspan id="SvgjsTspan1070" dy="16" x="77.5"><tspan id="SvgjsTspan1071" style="text-decoration:;">卡，一个界面</tspan></tspan></text></g></g><g id="SvgjsG1072" transform="translate(258,747.5)"><path id="SvgjsPath1073" d="M 0 0L 124 0L 140 16L 140 57L 0 57L 0 0Z" stroke="none" fill-opacity="1" fill="#ffffaa"></path><path id="SvgjsPath1074" d="M 124 0L 124 16L 140 16Z" stroke="none" fill-opacity="1" fill="#cdcdcd"></path><path id="SvgjsPath1075" d="M 0 0L 124 0L 140 16L 140 57L 0 57L 0 0Z" stroke="none" fill="none"></path><g id="SvgjsG1076"><text id="SvgjsText1077" font-family="微软雅黑" text-anchor="middle" font-size="13px" width="117" fill="#323232" font-weight="400" align="middle" anchor="middle" family="微软雅黑" size="13px" weight="400" font-style="" opacity="1" y="2.55" transform="rotate(0)"><tspan id="SvgjsTspan1078" dy="16" x="70"><tspan id="SvgjsTspan1079" style="text-decoration:;">游戏中出现的对象，</tspan></tspan><tspan id="SvgjsTspan1080" dy="16" x="70"><tspan id="SvgjsTspan1081" style="text-decoration:;">创建模型，贴图，材</tspan></tspan><tspan id="SvgjsTspan1082" dy="16" x="70"><tspan id="SvgjsTspan1083" style="text-decoration:;">质</tspan></tspan></text></g></g><g id="SvgjsG1084"><path id="SvgjsPath1085" d="M205 811L205 836.5L205 836.5L205 862" stroke="#323232" stroke-width="2" fill="none" marker-end="url(#SvgjsMarker1086)"></path></g><g id="SvgjsG1088" transform="translate(155,862)"><path id="SvgjsPath1089" d="M 0 4Q 0 0 4 0L 96 0Q 100 0 100 4L 100 66Q 100 70 96 70L 4 70Q 0 70 0 66Z" stroke="rgba(50,50,50,1)" stroke-width="2" fill-opacity="1" fill="#ffffff"></path><g id="SvgjsG1090"><text id="SvgjsText1091" font-family="微软雅黑" text-anchor="middle" font-size="13px" width="65" fill="#323232" font-weight="400" align="middle" anchor="middle" family="微软雅黑" size="13px" weight="400" font-style="" opacity="1" y="25.05" transform="rotate(0)"><tspan id="SvgjsTspan1092" dy="16" x="50"><tspan id="SvgjsTspan1093" style="text-decoration:;">摄像机设置</tspan></tspan></text></g></g><g id="SvgjsG1094" transform="translate(263,859)"><path id="SvgjsPath1095" d="M 0 0L 129 0L 145 16L 145 76L 0 76L 0 0Z" stroke="none" fill-opacity="1" fill="#ffffaa"></path><path id="SvgjsPath1096" d="M 129 0L 129 16L 145 16Z" stroke="none" fill-opacity="1" fill="#cdcdcd"></path><path id="SvgjsPath1097" d="M 0 0L 129 0L 145 16L 145 76L 0 76L 0 0Z" stroke="none" fill="none"></path><g id="SvgjsG1098"><text id="SvgjsText1099" font-family="微软雅黑" text-anchor="middle" font-size="13px" width="104" fill="#323232" font-weight="400" align="middle" anchor="middle" family="微软雅黑" size="13px" weight="400" font-style="" opacity="1" y="20.05" transform="rotate(0)"><tspan id="SvgjsTspan1100" dy="16" x="72.5"><tspan id="SvgjsTspan1101" style="text-decoration:;">设置主摄像机的位</tspan></tspan><tspan id="SvgjsTspan1102" dy="16" x="72.5"><tspan id="SvgjsTspan1103" style="text-decoration:;">置，控制游戏区域</tspan></tspan></text></g></g><g id="SvgjsG1104"><path id="SvgjsPath1105" d="M205 932L205 955.5L274.5 955.5L274.5 979" stroke="#323232" stroke-width="2" fill="none" marker-end="url(#SvgjsMarker1106)"></path></g><g id="SvgjsG1108" transform="translate(156,979)"><path id="SvgjsPath1109" d="M 0 4Q 0 0 4 0L 233 0Q 237 0 237 4L 237 237Q 237 241 233 241L 4 241Q 0 241 0 237Z" stroke="rgba(50,50,50,1)" stroke-width="2" fill-opacity="1" fill="#ffffff"></path><g id="SvgjsG1110"><text id="SvgjsText1111" font-family="微软雅黑" text-anchor="middle" font-size="13px" width="0" fill="#323232" font-weight="400" align="middle" anchor="middle" family="微软雅黑" size="13px" weight="400" font-style="" opacity="1" y="110.55" transform="rotate(0)"></text></g></g><g id="SvgjsG1112"><path id="SvgjsPath1113" d="M323.5 1426L659.5 1426L659.5 1163L660 1163L660 897L263 897" stroke="#323232" stroke-width="2" fill="none" marker-end="url(#SvgjsMarker1114)"></path><rect id="SvgjsRect1116" width="169" height="16" x="356.5" y="876" fill="#ffffff"></rect><text id="SvgjsText1117" font-family="微软雅黑" text-anchor="middle" font-size="13px" width="169" fill="#323232" font-weight="400" align="top" anchor="middle" family="微软雅黑" size="13px" weight="400" font-style="" opacity="1" y="874.05" transform="rotate(0)"><tspan id="SvgjsTspan1118" dy="16" x="441"><tspan id="SvgjsTspan1119" style="text-decoration:;">游戏管理脚本绑定到主摄像机</tspan></tspan></text></g><g id="SvgjsG1120"><path id="SvgjsPath1121" d="M393 1099.5L428 1099.5L428 776L398 776" stroke="#323232" stroke-width="2" fill="none" marker-end="url(#SvgjsMarker1122)"></path><rect id="SvgjsRect1124" width="91" height="16" x="382.5" y="932.25" fill="#ffffff"></rect><text id="SvgjsText1125" font-family="微软雅黑" text-anchor="middle" font-size="13px" width="91" fill="#323232" font-weight="400" align="top" anchor="middle" family="微软雅黑" size="13px" weight="400" font-style="" opacity="1" y="930.3" transform="rotate(0)"><tspan id="SvgjsTspan1126" dy="16" x="428"><tspan id="SvgjsTspan1127" style="text-decoration:;">绑定到游戏对象</tspan></tspan></text></g><g id="SvgjsG1128" transform="translate(69,961)"><path id="SvgjsPath1129" d="M 0 0L 64 0L 80 16L 80 100L 0 100L 0 0Z" stroke="none" fill-opacity="1" fill="#ffffaa"></path><path id="SvgjsPath1130" d="M 64 0L 64 16L 80 16Z" stroke="none" fill-opacity="1" fill="#cdcdcd"></path><path id="SvgjsPath1131" d="M 0 0L 64 0L 80 16L 80 100L 0 100L 0 0Z" stroke="none" fill="none"></path><g id="SvgjsG1132"><text id="SvgjsText1133" font-family="微软雅黑" text-anchor="middle" font-size="13px" width="58" fill="#323232" font-weight="400" align="middle" anchor="middle" family="微软雅黑" size="13px" weight="400" font-style="" opacity="1" y="16.05" transform="rotate(0)"><tspan id="SvgjsTspan1134" dy="16" x="40"><tspan id="SvgjsTspan1135" style="text-decoration:;">合理运用</tspan></tspan><tspan id="SvgjsTspan1136" dy="16" x="40"><tspan id="SvgjsTspan1137" style="text-decoration:;">UnityEngi</tspan></tspan><tspan id="SvgjsTspan1138" dy="16" x="40"><tspan id="SvgjsTspan1139" style="text-decoration:;">ne 刷新函</tspan></tspan><tspan id="SvgjsTspan1140" dy="16" x="40"><tspan id="SvgjsTspan1141" style="text-decoration:;">数</tspan></tspan></text></g></g><g id="SvgjsG1142"><path id="SvgjsPath1143" d="M274.5 1220L274.5 1235.5L273.5 1235.5L273.5 1251" stroke="#323232" stroke-width="2" fill="none" marker-end="url(#SvgjsMarker1144)"></path></g><g id="SvgjsG1146" transform="translate(223.5,1251)"><path id="SvgjsPath1147" d="M 0 4Q 0 0 4 0L 96 0Q 100 0 100 4L 100 66Q 100 70 96 70L 4 70Q 0 70 0 66Z" stroke="rgba(255,153,153,1)" stroke-width="2" fill-opacity="1" fill="#ffffff"></path><g id="SvgjsG1148"><text id="SvgjsText1149" font-family="微软雅黑" text-anchor="middle" font-size="13px" width="52" fill="#323232" font-weight="400" align="middle" anchor="middle" family="微软雅黑" size="13px" weight="400" font-style="" opacity="1" y="25.05" transform="rotate(0)"><tspan id="SvgjsTspan1150" dy="16" x="50"><tspan id="SvgjsTspan1151" style="text-decoration:;">添加 GUI</tspan></tspan></text></g></g><g id="SvgjsG1152" transform="translate(203.5,1055)"><path id="SvgjsPath1153" d="M 0 4Q 0 0 4 0L 138 0Q 142 0 142 4L 142 53Q 142 57 138 57L 4 57Q 0 57 0 53Z" stroke="rgba(50,50,50,1)" stroke-width="2" fill-opacity="1" fill="#ffffff"></path><g id="SvgjsG1154"><text id="SvgjsText1155" font-family="微软雅黑" text-anchor="middle" font-size="13px" width="117" fill="#323232" font-weight="400" align="middle" anchor="middle" family="微软雅黑" size="13px" weight="400" font-style="" opacity="1" y="2.55" transform="rotate(0)"><tspan id="SvgjsTspan1156" dy="16" x="71"><tspan id="SvgjsTspan1157" style="text-decoration:;">设置游戏对象图层，</tspan></tspan><tspan id="SvgjsTspan1158" dy="16" x="71"><tspan id="SvgjsTspan1159" style="text-decoration:;">控制对象是否发生碰</tspan></tspan><tspan id="SvgjsTspan1160" dy="16" x="71"><tspan id="SvgjsTspan1161" style="text-decoration:;">撞</tspan></tspan></text></g></g><g id="SvgjsG1162"><path id="SvgjsPath1163" d="M273.5 1321L273.5 1356L273.5 1356L273.5 1391" stroke="#323232" stroke-width="2" fill="none" marker-end="url(#SvgjsMarker1164)"></path></g><g id="SvgjsG1166" transform="translate(223.5,1391)"><path id="SvgjsPath1167" d="M 0 4Q 0 0 4 0L 96 0Q 100 0 100 4L 100 66Q 100 70 96 70L 4 70Q 0 70 0 66Z" stroke="rgba(50,50,50,1)" stroke-width="2" fill-opacity="1" fill="#ffffff"></path><g id="SvgjsG1168"><text id="SvgjsText1169" font-family="微软雅黑" text-anchor="middle" font-size="13px" width="78" fill="#323232" font-weight="400" align="middle" anchor="middle" family="微软雅黑" size="13px" weight="400" font-style="" opacity="1" y="25.05" transform="rotate(0)"><tspan id="SvgjsTspan1170" dy="16" x="50"><tspan id="SvgjsTspan1171" style="text-decoration:;">添加游戏管理</tspan></tspan></text></g></g><g id="SvgjsG1172"><path id="SvgjsPath1173" d="M273.5 1461L273.5 1487.5L273.5 1487.5L273.5 1514" stroke="#323232" stroke-width="2" fill="none" marker-end="url(#SvgjsMarker1174)"></path></g><g id="SvgjsG1176" transform="translate(253.5,1514)"><path id="SvgjsPath1177" d="M 0 20C 0 -6.666666666666667 40 -6.666666666666667 40 20C 40 46.666666666666664 0 46.666666666666664 0 20Z" stroke="rgba(50,50,50,1)" stroke-width="4" fill-opacity="1" fill="#ffffff"></path><path id="SvgjsPath1178" d="M 10 20C 10 6.666666666666666 30 6.666666666666666 30 20C 30 33.333333333333336 10 33.333333333333336 10 20Z" stroke="none" fill-opacity="1" fill="#323232"></path><path id="SvgjsPath1179" d="M 0 20C 0 -6.666666666666667 40 -6.666666666666667 40 20C 40 46.666666666666664 0 46.666666666666664 0 20Z" stroke="none" fill="none"></path><g id="SvgjsG1180"><text id="SvgjsText1181" font-family="微软雅黑" text-anchor="middle" font-size="13px" width="0" fill="#323232" font-weight="400" align="middle" anchor="middle" family="微软雅黑" size="13px" weight="400" font-style="" opacity="1" y="45.05" transform="rotate(0)"></text></g></g><g id="SvgjsG1182"><path id="SvgjsPath1183" d="M1093 190L1093 25L359 25L359 55" stroke="#323232" stroke-width="2" fill="none" marker-end="url(#SvgjsMarker1184)"></path><rect id="SvgjsRect1186" width="65" height="16" x="761" y="17" fill="#ffffff"></rect><text id="SvgjsText1187" font-family="微软雅黑" text-anchor="middle" font-size="13px" width="65" fill="#323232" font-weight="400" align="top" anchor="middle" family="微软雅黑" size="13px" weight="400" font-style="" opacity="1" y="15.05" transform="rotate(0)"><tspan id="SvgjsTspan1188" dy="16" x="793.5"><tspan id="SvgjsTspan1189" style="text-decoration:;">数字化模型</tspan></tspan></text></g><g id="SvgjsG1190" transform="translate(532.5,194)"><path id="SvgjsPath1191" d="M 0 4Q 0 0 4 0L 96 0Q 100 0 100 4L 100 66Q 100 70 96 70L 4 70Q 0 70 0 66Z" stroke="rgba(50,50,50,1)" stroke-width="2" fill-opacity="1" fill="#ffcccc"></path><g id="SvgjsG1192"><text id="SvgjsText1193" font-family="微软雅黑" text-anchor="middle" font-size="13px" width="78" fill="#323232" font-weight="400" align="middle" anchor="middle" family="微软雅黑" size="13px" weight="400" font-style="" opacity="1" y="17.05" transform="rotate(0)"><tspan id="SvgjsTspan1194" dy="16" x="50"><tspan id="SvgjsTspan1195" style="text-decoration:;">目的：增加游</tspan></tspan><tspan id="SvgjsTspan1196" dy="16" x="50"><tspan id="SvgjsTspan1197" style="text-decoration:;">戏体验</tspan></tspan></text></g></g><g id="SvgjsG1198" transform="translate(1159,422)"><path id="SvgjsPath1199" d="M 0 0L 221 0L 237 16L 237 156L 0 156L 0 0Z" stroke="none" fill-opacity="1" fill="#ffffaa"></path><path id="SvgjsPath1200" d="M 221 0L 221 16L 237 16Z" stroke="none" fill-opacity="1" fill="#cdcdcd"></path><path id="SvgjsPath1201" d="M 0 0L 221 0L 237 16L 237 156L 0 156L 0 0Z" stroke="none" fill="none"></path><g id="SvgjsG1202"><text id="SvgjsText1203" font-family="微软雅黑" text-anchor="start" font-size="13px" width="211" fill="#323232" font-weight="400" align="middle" anchor="start" family="微软雅黑" size="13px" weight="400" font-style="" opacity="1" y="12.05" transform="rotate(0)"><tspan id="SvgjsTspan1204" dy="16" x="10"><tspan id="SvgjsTspan1205" style="text-decoration:;">目的：</tspan></tspan><tspan id="SvgjsTspan1206" dy="16" x="10"><tspan id="SvgjsTspan1207" style="text-decoration:;">1. 快速试验、否定或修改游戏机制与</tspan></tspan><tspan id="SvgjsTspan1208" dy="16" x="10"><tspan id="SvgjsTspan1209" style="text-decoration:;">规则。</tspan></tspan><tspan id="SvgjsTspan1210" dy="16" x="10"><tspan id="SvgjsTspan1211" style="text-decoration:;">2. 探索游戏的动态行为，理解可能由</tspan></tspan><tspan id="SvgjsTspan1212" dy="16" x="10"><tspan id="SvgjsTspan1213" style="text-decoration:;">规则自然产生的可能结果。</tspan></tspan><tspan id="SvgjsTspan1214" dy="16" x="10"><tspan id="SvgjsTspan1215" style="text-decoration:;">3. 确保规则和游戏元素易于被玩家理</tspan></tspan><tspan id="SvgjsTspan1216" dy="16" x="10"><tspan id="SvgjsTspan1217" style="text-decoration:;">解。</tspan></tspan><tspan id="SvgjsTspan1218" dy="16" x="10"><tspan id="SvgjsTspan1219" style="text-decoration:;">4. 了解玩家对游戏的情绪反应。</tspan></tspan></text></g></g><g id="SvgjsG1220" transform="translate(156,324)"><path id="SvgjsPath1221" d="M 0 4Q 0 0 4 0L 99 0Q 103 0 103 4L 103 32Q 103 36 99 36L 4 36Q 0 36 0 32Z" stroke="rgba(50,50,50,1)" stroke-width="2" fill-opacity="1" fill="#ffffff"></path><g id="SvgjsG1222"><text id="SvgjsText1223" font-family="微软雅黑" text-anchor="middle" font-size="13px" width="78" fill="#323232" font-weight="400" align="middle" anchor="middle" family="微软雅黑" size="13px" weight="400" font-style="" opacity="1" y="0.050000000000000044" transform="rotate(0)"><tspan id="SvgjsTspan1224" dy="16" x="51.5"><tspan id="SvgjsTspan1225" style="text-decoration:;">总结基本玩法</tspan></tspan><tspan id="SvgjsTspan1226" dy="16" x="51.5"><tspan id="SvgjsTspan1227" style="text-decoration:;">（核心机制）</tspan></tspan></text></g></g><g id="SvgjsG1228" transform="translate(144.5,367)"><path id="SvgjsPath1229" d="M 0 4Q 0 0 4 0L 122 0Q 126 0 126 4L 126 28Q 126 32 122 32L 4 32Q 0 32 0 28Z" stroke="rgba(50,50,50,1)" stroke-width="2" fill-opacity="1" fill="#ffffff"></path><g id="SvgjsG1230"><text id="SvgjsText1231" font-family="微软雅黑" text-anchor="middle" font-size="13px" width="78" fill="#323232" font-weight="400" align="middle" anchor="middle" family="微软雅黑" size="13px" weight="400" font-style="" opacity="1" y="6.05" transform="rotate(0)"><tspan id="SvgjsTspan1232" dy="16" x="63"><tspan id="SvgjsTspan1233" style="text-decoration:;">列出游戏对象</tspan></tspan></text></g></g><g id="SvgjsG1234" transform="translate(142.25,411)"><path id="SvgjsPath1235" d="M 0 4Q 0 0 4 0L 146 0Q 150 0 150 4L 150 23Q 150 27 146 27L 4 27Q 0 27 0 23Z" stroke="rgba(50,50,50,1)" stroke-width="2" fill-opacity="1" fill="#ffffff"></path><g id="SvgjsG1236"><text id="SvgjsText1237" font-family="微软雅黑" text-anchor="middle" font-size="13px" width="130" fill="#323232" font-weight="400" align="middle" anchor="middle" family="微软雅黑" size="13px" weight="400" font-style="" opacity="1" y="3.55" transform="rotate(0)"><tspan id="SvgjsTspan1238" dy="16" x="75"><tspan id="SvgjsTspan1239" style="text-decoration:;">分析游戏对象动作列表</tspan></tspan></text></g></g><g id="SvgjsG1240" transform="translate(141,448.5)"><path id="SvgjsPath1241" d="M 0 4Q 0 0 4 0L 148.5 0Q 152.5 0 152.5 4L 152.5 24.5Q 152.5 28.5 148.5 28.5L 4 28.5Q 0 28.5 0 24.5Z" stroke="rgba(50,50,50,1)" stroke-width="2" fill-opacity="1" fill="#ffffff"></path><g id="SvgjsG1242"><text id="SvgjsText1243" font-family="微软雅黑" text-anchor="middle" font-size="13px" width="117" fill="#323232" font-weight="400" align="middle" anchor="middle" family="微软雅黑" size="13px" weight="400" font-style="" opacity="1" y="4.3" transform="rotate(0)"><tspan id="SvgjsTspan1244" dy="16" x="76.5"><tspan id="SvgjsTspan1245" style="text-decoration:;">绘制游戏对象流程图</tspan></tspan></text></g></g><g id="SvgjsG1246"><path id="SvgjsPath1247" d="M217.25 477L217.25 496L218.25 496L218.25 515" stroke="#323232" stroke-width="2" fill="none" marker-end="url(#SvgjsMarker1248)"></path></g><g id="SvgjsG1250" transform="translate(448.5,1161)"><path id="SvgjsPath1251" d="M 0 4Q 0 0 4 0L 180 0Q 184 0 184 4L 184 82Q 184 86 180 86L 4 86Q 0 86 0 82Z" stroke="rgba(50,50,50,1)" stroke-width="2" fill-opacity="1" fill="#ffffff"></path><g id="SvgjsG1252"><text id="SvgjsText1253" font-family="微软雅黑" text-anchor="middle" font-size="13px" width="156" fill="#323232" font-weight="400" align="middle" anchor="middle" family="微软雅黑" size="13px" weight="400" font-style="" opacity="1" y="17.05" transform="rotate(0)"><tspan id="SvgjsTspan1254" dy="16" x="92"><tspan id="SvgjsTspan1255" style="text-decoration:;">主摄像机跟随物体移动，可</tspan></tspan><tspan id="SvgjsTspan1256" dy="16" x="92"><tspan id="SvgjsTspan1257" style="text-decoration:;">以添加多个脚本组件，注意</tspan></tspan><tspan id="SvgjsTspan1258" dy="16" x="92"><tspan id="SvgjsTspan1259" style="text-decoration:;">不冲突</tspan></tspan></text></g></g><g id="SvgjsG1260" transform="translate(361,329.25)"><path id="SvgjsPath1261" d="M 0 0L 337.75 0L 353.75 16L 353.75 125L 0 125L 0 0Z" stroke="none" fill-opacity="1" fill="#ffffaa"></path><path id="SvgjsPath1262" d="M 337.75 0L 337.75 16L 353.75 16Z" stroke="none" fill-opacity="1" fill="#cdcdcd"></path><path id="SvgjsPath1263" d="M 0 0L 337.75 0L 353.75 16L 353.75 125L 0 125L 0 0Z" stroke="none" fill="none"></path><g id="SvgjsG1264"><text id="SvgjsText1265" font-family="微软雅黑" text-anchor="start" font-size="13px" width="325" fill="#323232" font-weight="400" align="middle" anchor="start" family="微软雅黑" size="13px" weight="400" font-style="" opacity="1" y="36.55" transform="rotate(0)"><tspan id="SvgjsTspan1266" dy="16" x="10"><tspan id="SvgjsTspan1267" style="text-decoration:;">注意的是，每一个模块功能也可以是这样的步骤，也就是</tspan></tspan><tspan id="SvgjsTspan1268" dy="16" x="10"><tspan id="SvgjsTspan1269" style="text-decoration:;">说，我们会一边创建图形一边写代码，而不是提前创建所</tspan></tspan><tspan id="SvgjsTspan1270" dy="16" x="10"><tspan id="SvgjsTspan1271" style="text-decoration:;">有的图形。</tspan></tspan></text></g></g><g id="SvgjsG1272" transform="translate(203.5,1121)"><path id="SvgjsPath1273" d="M 0 4Q 0 0 4 0L 138 0Q 142 0 142 4L 142 39Q 142 43 138 43L 4 43Q 0 43 0 39Z" stroke="rgba(50,50,50,1)" stroke-width="2" fill-opacity="1" fill="#ffffff"></path><g id="SvgjsG1274"><text id="SvgjsText1275" font-family="微软雅黑" text-anchor="middle" font-size="13px" width="52" fill="#323232" font-weight="400" align="middle" anchor="middle" family="微软雅黑" size="13px" weight="400" font-style="" opacity="1" y="11.55" transform="rotate(0)"><tspan id="SvgjsTspan1276" dy="16" x="71"><tspan id="SvgjsTspan1277" style="text-decoration:;">设置标签</tspan></tspan></text></g></g><g id="SvgjsG1278" transform="translate(194.5,1002)"><path id="SvgjsPath1279" d="M 0 0L 160 0L 160 40L 0 40Z" stroke="none" fill="none"></path><g id="SvgjsG1280"><text id="SvgjsText1281" font-family="微软雅黑" text-anchor="middle" font-size="13px" width="104" fill="#323232" font-weight="400" align="middle" anchor="middle" family="微软雅黑" size="13px" weight="400" font-style="" opacity="1" y="10.05" transform="rotate(0)"><tspan id="SvgjsTspan1282" dy="16" x="80"><tspan id="SvgjsTspan1283" style="text-decoration:;">编写游戏原型代码</tspan></tspan></text></g></g><g id="SvgjsG1284" transform="translate(203.5,1171)"><path id="SvgjsPath1285" d="M 0 4Q 0 0 4 0L 138 0Q 142 0 142 4L 142 39Q 142 43 138 43L 4 43Q 0 43 0 39Z" stroke="rgba(50,50,50,1)" stroke-width="2" fill-opacity="1" fill="#ffffff"></path><g id="SvgjsG1286"><text id="SvgjsText1287" font-family="微软雅黑" text-anchor="middle" font-size="13px" width="78" fill="#323232" font-weight="400" align="middle" anchor="middle" family="微软雅黑" size="13px" weight="400" font-style="" opacity="1" y="11.55" transform="rotate(0)"><tspan id="SvgjsTspan1288" dy="16" x="71"><tspan id="SvgjsTspan1289" style="text-decoration:;">设置物理规则</tspan></tspan></text></g></g></svg>